<svg width="26" height="25" viewBox="0 0 26 25" fill="none" xmlns="http://www.w3.org/2000/svg">
<path d="M12.9644 -0.00860596C10.4921 -0.00860596 8.07535 0.724506 6.01973 2.09802C3.96412 3.47154 2.36196 5.42377 1.41587 7.70785C0.469771 9.99193 0.22223 12.5053 0.704545 14.93C1.18686 17.3548 2.37737 19.5821 4.12553 21.3302C5.87368 23.0784 8.10097 24.2689 10.5257 24.7512C12.9505 25.2335 15.4638 24.986 17.7479 24.0399C20.032 23.0938 21.9842 21.4916 23.3577 19.436C24.7312 17.3804 25.4644 14.9637 25.4644 12.4914C25.4607 9.1773 24.1426 6 21.7992 3.65658C19.4558 1.31316 16.2785 -0.00496646 12.9644 -0.00860596ZM5.57311 21.2939C6.315 19.9875 7.38986 18.9012 8.68822 18.1454C9.98658 17.3896 11.4621 16.9914 12.9644 16.9914C14.4667 16.9914 15.9421 17.3896 17.2405 18.1454C18.5389 18.9012 19.6137 19.9875 20.3556 21.2939C18.2867 23.036 15.669 23.9914 12.9644 23.9914C10.2597 23.9914 7.64197 23.036 5.57311 21.2939ZM21.1106 20.6001C19.8685 18.5235 17.8771 17.0023 15.5469 16.3501C16.6303 15.7739 17.4899 14.852 17.989 13.7309C18.4881 12.6098 18.5979 11.354 18.3009 10.1634C18.004 8.97268 17.3174 7.9155 16.3504 7.16002C15.3834 6.40454 14.1915 5.99415 12.9644 5.99415C11.7372 5.99415 10.5453 6.40454 9.57831 7.16002C8.6113 7.9155 7.92471 8.97268 7.62779 10.1634C7.33087 11.354 7.44067 12.6098 7.93972 13.7309C8.43877 14.852 9.29841 15.7739 10.3819 16.3501C8.0516 17.0023 6.06025 18.5235 4.81811 20.6001C3.21392 18.9902 2.12273 16.941 1.68233 14.7114C1.24193 12.4817 1.47207 10.1716 2.34368 8.07261C3.2153 5.97366 4.6893 4.18003 6.57958 2.91821C8.46985 1.65639 10.6916 0.982964 12.9644 0.982964C15.2371 0.982964 17.4589 1.65639 19.3491 2.91821C21.2394 4.18003 22.7134 5.97366 23.585 8.07261C24.4567 10.1716 24.6868 12.4817 24.2464 14.7114C23.806 16.941 22.7148 18.9902 21.1106 20.6001ZM12.9644 15.9914C12.0743 15.9914 11.2043 15.7275 10.4643 15.233C9.72427 14.7385 9.1475 14.0357 8.8069 13.2135C8.46631 12.3912 8.37719 11.4864 8.55083 10.6135C8.72446 9.74057 9.15304 8.93875 9.78238 8.30941C10.4117 7.68008 11.2135 7.25149 12.0865 7.07786C12.9594 6.90423 13.8642 6.99334 14.6864 7.33394C15.5087 7.67453 16.2115 8.25131 16.706 8.99133C17.2004 9.73135 17.4644 10.6014 17.4644 11.4914C17.4644 12.6849 16.9903 13.8295 16.1463 14.6734C15.3024 15.5173 14.1578 15.9914 12.9644 15.9914Z" fill="#EEEEEE"/>
</svg>
